<svg display="none" xmlns="http://www.w3.org/2000/svg">


    <symbol id="fire" viewBox="0 0 14.442 21.407">
    
		<g><path d="M12.167,10.778c-0.083-1.13-0.543-2.143-1.243-2.929C9.806,6.589,9.345,5.281,9.345,2.904   C8.668,3.675,8.407,4.399,8.182,5.133C8.213,6.231,8.298,7.33,8.527,8.404C8.676,9.1,8.854,9.79,9.099,10.457   c0.247,0.676,0.631,1.347,0.759,2.061c0.24,1.343-0.36,2.374-1.091,3.366c0.204-0.067,0.393-0.149,0.558-0.249   C10.53,14.913,12.326,12.893,12.167,10.778z" /><path d="M8.212,16.019c0.305-0.392,0.603-0.788,0.857-1.213c0.767-1.288,0.41-2.332-0.101-3.645   C8.157,9.075,7.867,6.944,7.805,4.74C7.453,3.013,6.779,1.413,5.848,0c0.064,0.331,0.108,1.074,0.136,1.416   c0.161,2.172-0.265,3.72-1.663,5.619c0.603,1.927,1.624,3.528,2.076,5.519c0.269,1.185,0.327,2.354,0.243,3.519   C7.164,16.128,7.712,16.11,8.212,16.019z" /><path d="M5.885,12.071c-0.5-1.666-2.238-5.45-2.782-7.083c0,1.3-0.131,2.388-0.257,2.911   c-0.301,1.255-0.581,2.558-0.581,3.619c0,1.844,1.74,3.485,2.819,4.104c0.327,0.188,0.745,0.321,1.198,0.4   C6.376,14.704,6.281,13.386,5.885,12.071z" /><polygon points="13.828,21.407 13.647,21.354 0.182,17.5 0,17.449 0.052,17.267 0.563,15.483 0.614,15.302    0.795,15.354 14.262,19.207 14.442,19.26 14.39,19.44 13.88,21.226  " /><polygon points="13.699,15.534 7.905,17.193 11.279,18.158 14.209,17.318  "/><polygon points="0.233,19.389 0.744,21.173 6.538,19.515 3.164,18.55  " /></g>
    
    </symbol>


    <symbol id="left-arrow" viewBox="0 0 492 492">
    
     
		 <g><path d="M198.608,246.104L382.664,62.04c5.068-5.056,7.856-11.816,7.856-19.024c0-7.212-2.788-13.968-7.856-19.032l-16.128-16.12
			C361.476,2.792,354.712,0,347.504,0s-13.964,2.792-19.028,7.864L109.328,227.008c-5.084,5.08-7.868,11.868-7.848,19.084
			c-0.02,7.248,2.76,14.028,7.848,19.112l218.944,218.932c5.064,5.072,11.82,7.864,19.032,7.864c7.208,0,13.964-2.792,19.032-7.864
			l16.124-16.12c10.492-10.492,10.492-27.572,0-38.06L198.608,246.104z"/></g>
    
    </symbol>


    <symbol id="right-arrow" viewBox="0 0 492.004 492.004">
    
     
		 <g>
		<path d="M382.678,226.804L163.73,7.86C158.666,2.792,151.906,0,144.698,0s-13.968,2.792-19.032,7.86l-16.124,16.12
			c-10.492,10.504-10.492,27.576,0,38.064L293.398,245.9l-184.06,184.06c-5.064,5.068-7.86,11.824-7.86,19.028
			c0,7.212,2.796,13.968,7.86,19.04l16.124,16.116c5.068,5.068,11.824,7.86,19.032,7.86s13.968-2.792,19.032-7.86L382.678,265
			c5.076-5.084,7.864-11.872,7.848-19.088C390.542,238.668,387.754,231.884,382.678,226.804z"/>
	</g>
    
    </symbol>


    <symbol id="facebook" viewBox="0 0 512 512">
    
       <g><path d="M258.8,507.2C120.4,507.8,6.6,392.6,9.9,251.9C13,117.9,124,7.2,262,8.7C398.7,10.2,511.8,124,508.1,264.9   C504.6,398.3,394.5,507.9,258.8,507.2z M40.2,258.3C41.3,383.6,142.9,480.1,262.9,478c116.2-2.1,214.7-96.8,214.7-220   c0-125.3-102.4-222.2-222.8-219.9C138.6,40.2,41,135.2,40.2,258.3z" /><path d="M206.8,433.4c0-58.9,0-117.3,0-176.3c-13,0-25.6,0-38.5,0c0-20,0-39.4,0-59.4c1.7-0.1,3.4-0.3,5.2-0.3   c9.3,0,18.7-0.2,28,0.1c4.1,0.1,5.5-1,5.4-5.2c-0.2-15.2-0.2-30.3-0.1-45.5c0.1-17.1,4.9-32.6,17.1-45c11.8-12,26.9-18.5,43.3-19.5   c26.4-1.5,52.9-1.3,79.4-1.8c0.3,0,0.6,0.3,1.2,0.6c0,20.1,0,40.3,0,61c-1.9,0.1-3.7,0.2-5.4,0.2c-12,0-24,0-36,0   c-12.1,0.1-19.2,7.3-19.2,19.2c0,11.3,0,22.7,0.1,34c0,0.3,0.2,0.6,0.5,1.7c19.8,0,39.8,0,60.8,0c-2.6,20.3-5,39.7-7.6,59.8   c-18.1,0-35.8,0-54,0c0,59.2,0,117.8,0,176.6C260.1,433.4,233.9,433.4,206.8,433.4z" /></g>
    </symbol>


    <symbol id="twitter" viewBox="0 0 512 512">
    
        <g><path d="M258.8,507.2C120.4,507.8,6.6,392.6,9.9,251.9C13,118,123.9,7.2,261.9,8.7C398.7,10.1,511.8,124,508.1,264.8   C504.6,398.2,394.6,507.8,258.8,507.2z M477.8,257.8C476.7,132.4,375.1,35.9,255.2,38C138.6,40,40.1,135.2,40.4,258.4   C40.7,383.9,143.1,480.2,263,478C379.5,475.8,477,380.8,477.8,257.8z"/><path d="M99,230.2c10.3,2.9,20.3,5.8,30.4,8.6c0.3-0.5,0.6-1.1,0.9-1.6c-20.1-15.5-31-35.4-30.5-60.9c0.2-13.2,4.1-27.1,9.8-34.2   c39,45.3,87.9,70.9,147,74.7c0.5-10.9-0.1-21.3,1.6-31.3c7.3-42.1,55.6-68.6,95.4-53c9.4,3.7,17.8,8.9,25.4,15.6   c1.5,1.3,4.6,2.4,6.4,1.8c12.1-4.1,24-8.6,36-13.1c1.7-0.6,3.2-1.6,5.8-3c-5.5,16.9-15.7,28.9-28.8,39.4c4.1-0.7,8.2-1.3,12.2-2.2   c4.4-1,8.7-2.3,13-3.7c4-1.3,8-2.8,13.1-4.7c-9,13.5-19.1,24.2-30.9,33.3c-3.4,2.6-4.7,5.1-4.7,9.5c0.5,55.5-18.3,103.8-55.2,144.8   c-28.8,32-64.9,51.9-107.3,60.1c-32.1,6.2-63.9,5.6-95.6-2.7c-19.4-5.1-37.7-13.1-54.8-23.6c-0.5-0.3-0.9-0.8-1.9-1.7   c38.9,3.3,73.5-6.1,105.2-29.9c-33.1-3.2-55-19.6-67.3-50.5c10.7,0,20.5,0,30.3,0c0.1-0.5,0.2-1.1,0.3-1.6   c-20.6-5.6-36.5-17.4-46.9-36.1C101.8,253.5,99.1,242,99,230.2z"/></g>

    </symbol>


    <symbol id="google" viewBox="0 0 512 512">
    
        <g><path d="M258.6,507.2C120.3,507.7,6.5,392.6,9.9,251.7C13.1,117.9,124,7.1,262.1,8.7c136.7,1.6,249.5,115.4,246,255.8   C504.8,398,394.7,508,258.6,507.2z M477.8,258.1c-1-123.5-99.1-218.2-215.4-220.1c-119.9-1.9-222.1,94.8-222,220.2   C40.5,381.5,139.2,476,255.3,478C375.3,480,476.8,383.4,477.8,258.1z"/><path d="M193.9,292.4c-1.1-10.4-2.1-20-3.1-30.1c-10.1-0.7-20.7-3.3-30.2-9.2c-26.4-16.6-37-41.6-36.7-71.6   c0.4-43.5,37.9-80.1,81.4-80.2c26.3-0.1,52.6,0,79,0c4,0,8,0.2,9.5,4.6c1.5,4.3,0.3,8-3.6,11c-4.1,3.2-8,6.5-11.8,10.1   c-4.2,4-8.5,7.6-15.3,5.9c2.8,6.4,5.9,12.1,7.8,18.2c10.9,34.7,5.1,65.4-22.1,90.9c-3.1,2.9-6.2,6.1-8.9,9.4   c-5,6.1-5.5,12.7-0.5,18.7c6.5,7.7,13.2,15.5,20.9,21.9c35.3,29.5,38.7,96.3-2.2,127.3c-13.2,10-27.9,16.2-44.2,18.1   c-27.1,3.1-53.2-0.2-77.2-14.3c-16.2-9.5-27.8-23-30.7-42.1c-2.8-18.9,2.6-36.1,13.8-51.2c17.1-23.1,40.6-34.7,69-36.9   C190.9,292.6,192.9,292.5,193.9,292.4z M201.2,317.7c-8-0.1-17.1,1.8-25.4,6.3c-16.1,8.6-27.6,20.7-26.5,40.4   c1,17.3,10.3,29.7,25.6,37.1c17.2,8.3,34.9,6.2,52.5,0.8c27.4-8.5,34.6-49.4,12.4-66.4c-3.7-2.8-7.3-5.8-10.6-9.1   C221.9,319.2,212.6,317.7,201.2,317.7z M165.5,170.2c1.7,9.6,2.5,17.7,4.7,25.5c4.1,14.5,10.9,27.6,23.8,36.3   c12.2,8.2,25,5,32.1-7.8c7.3-13.1,8.2-27.2,5.9-41.7c-2.6-16.8-8.7-32.1-21.7-43.7c-14.2-12.7-30.4-9.9-38.3,7.3   C168.5,153.9,167.4,162.9,165.5,170.2z"/><path d="M341.8,238.2c0-18.8,0-36.6,0-54.4c0-2.3,0.1-4.8,1.1-6.7c2.7-5,21.2-5,24,0c1.1,2,1.5,4.8,1.5,7.2c0.1,16,0.1,32,0.1,48   c0,1.8,0,3.6,0,6c3.4,0,6.2,0,9,0c11.8,0,23.7,0,35.5,0c7.9,0,9.9,2.1,9.9,10.2c0,4.2,0,8.3,0,12.5c-0.1,6.8-2.3,9-9,9.1   c-13.2,0-26.3,0-39.5,0c-1.8,0-3.6,0-6,0c0,3.7,0,6.8,0,10c0,14.5,0,29,0,43.5c0,9-1.9,10.9-10.7,11c-2.2,0-4.3,0-6.5,0   c-7.7,0-9.5-1.8-9.6-9.4c0-16.3,0-32.7,0-49c0-1.8,0-3.6,0-5.8c-2.3-0.1-4.1-0.2-5.8-0.2c-13.3,0-26.7,0-40,0   c-6.2,0-8.8-2.5-8.9-8.7c-0.1-4.8-0.1-9.7,0-14.5c0.2-5.9,2.7-8.4,8.7-8.5c13.3-0.1,26.7,0,40,0   C337.6,238.2,339.4,238.2,341.8,238.2z"/></g>
    </symbol>


    <symbol id="linkedin" viewBox="0 0 512 512">
    
      <g><path d="M259,507.2C120.4,507.9,6.7,392.7,9.9,252.1c3-134,114.1-245,252.4-243.4c136.6,1.6,249.4,115.4,245.8,256   C504.7,398.1,394.7,507.8,259,507.2z M40.2,258.2C41.3,383.5,142.6,479.8,262.4,478c116.2-1.8,215.2-96.4,215.3-220   c0-125.2-102.1-222-222.2-220C139.1,39.9,41,134.7,40.2,258.2z"/><path d="M326.6,375.6c0-2.2,0-4.1,0-6.1c0-26.7,0.1-53.3-0.1-80c0-4.6-0.4-9.4-1.5-13.8c-3.6-14.8-15.6-22.2-32.9-20.8   c-12.8,1-24.3,12.4-25.2,25.6c-0.6,8-0.4,16-0.5,24c-0.1,21.7,0,43.3,0,65c0,2,0,3.9,0,6.2c-16.2,0-32,0-48.1,0   c0-52,0-104.1,0-156.4c15.7,0,31.4,0,47.7,0c0,6.1,0,12.3,0,19.8c1.7-2,2.7-3,3.4-4.2c21.6-32.4,80.2-28.9,97.6,9.3   c4.8,10.6,7.7,21.7,7.8,33.3c0.3,32.1,0.2,64.3,0.2,96.5c0,0.5-0.1,1-0.3,1.8C358.9,375.6,343,375.6,326.6,375.6z"/><path d="M187.5,375.8c-16.1,0-31.7,0-47.7,0c0-51.9,0-103.6,0-155.6c15.9,0,31.6,0,47.7,0C187.5,271.9,187.5,323.6,187.5,375.8z"/><path d="M162.2,189c-14.3-0.1-24.3-10.5-24.2-24.9s10.5-24.3,25.4-24.2c14.2,0.1,24.5,10.6,24.3,24.9   C187.7,179,177,189.1,162.2,189z"/></g>
    </symbol>


</svg>